<?xml version="1.0" encoding="UTF-8" standalone="no"?>
<!-- Created with Inkscape (http://www.inkscape.org/) -->

<svg
   xmlns:dc="http://purl.org/dc/elements/1.1/"
   xmlns:cc="http://creativecommons.org/ns#"
   xmlns:rdf="http://www.w3.org/1999/02/22-rdf-syntax-ns#"
   xmlns:svg="http://www.w3.org/2000/svg"
   xmlns="http://www.w3.org/2000/svg"
   xmlns:sodipodi="http://sodipodi.sourceforge.net/DTD/sodipodi-0.dtd"
   xmlns:inkscape="http://www.inkscape.org/namespaces/inkscape"
   width="60.276474mm"
   height="17.27047mm"
   viewBox="0 0 60.276474 17.27047"
   version="1.1"
   id="svg3794"
   inkscape:version="0.92.2 5c3e80d, 2017-08-06"
   sodipodi:docname="signature.svg">
  <defs
     id="defs3788" />
  <sodipodi:namedview
     id="base"
     pagecolor="#ffffff"
     bordercolor="#666666"
     borderopacity="1.0"
     inkscape:pageopacity="0.0"
     inkscape:pageshadow="2"
     inkscape:zoom="0.35"
     inkscape:cx="-131.79558"
     inkscape:cy="-44.499717"
     inkscape:document-units="mm"
     inkscape:current-layer="layer1"
     showgrid="false"
     inkscape:window-width="1920"
     inkscape:window-height="949"
     inkscape:window-x="182"
     inkscape:window-y="51"
     inkscape:window-maximized="0" />
  <metadata
     id="metadata3791">
    <rdf:RDF>
      <cc:Work
         rdf:about="">
        <dc:format>image/svg+xml</dc:format>
        <dc:type
           rdf:resource="http://purl.org/dc/dcmitype/StillImage" />
        <dc:title></dc:title>
      </cc:Work>
    </rdf:RDF>
  </metadata>
  <g
     inkscape:label="Layer 1"
     inkscape:groupmode="layer"
     id="layer1"
     transform="translate(-80.228056,-119.78898)">
    <path
       style="fill:#000000;stroke-width:0.02116667"
       d="m 82.042236,137.04425 -0.0151,-0.0151 v -0.0296 -0.0296 l 0.0688,0.007 0.0688,0.007 v 0.0318 0.0317 l -0.0537,0.006 -0.0537,0.006 z m 21.198074,-1.24199 -0.0676,-0.0698 v -0.0752 -0.0752 l 0.0637,-0.0666 0.0637,-0.0666 h 0.0525 0.0525 l 0.0264,-0.0423 0.0264,-0.0423 h 0.14289 0.1429 l 0.0264,-0.0423 0.0264,-0.0423 h 0.1429 0.14289 l 0.0264,-0.0423 0.0264,-0.0423 h 0.26566 0.26565 l 0.0779,-0.0847 0.0778,-0.0847 h 0.13806 0.13807 l 0.0264,-0.0423 0.0264,-0.0423 h 0.26989 0.2699 l 0.0264,-0.0423 0.0264,-0.0423 h 0.14289 0.1429 l 0.0264,-0.0423 0.0264,-0.0423 h 0.10056 0.10056 l 0.0264,-0.0423 0.0264,-0.0423 h 0.22757 0.22756 l 0.0264,-0.0423 0.0264,-0.0423 h 0.10056 0.10057 l 0.0264,-0.0423 0.0264,-0.0423 h 0.18522 0.18523 l 0.0264,-0.0423 0.0264,-0.0423 h 0.22757 0.22756 l 0.0264,-0.0423 0.0264,-0.0423 h 0.10056 0.10057 l 0.0264,-0.0423 0.0264,-0.0423 h 0.14289 0.1429 l 0.0264,-0.0423 0.0264,-0.0423 h 0.1842 0.18421 l 0.0303,-0.0432 0.0303,-0.0432 0.18791,0.006 0.1879,0.006 0.006,0.14291 0.006,0.14292 -0.10579,0.10579 -0.1058,0.10579 h -0.18019 -0.18018 l -0.0226,0.0423 -0.0226,0.0423 h -0.10434 -0.10434 l -0.0226,0.0423 -0.0226,0.0423 h -0.27368 -0.27368 l -0.0226,0.0423 -0.0226,0.0423 h -0.27367 -0.27368 l -0.0226,0.0423 -0.0226,0.0423 h -0.14668 -0.14668 l -0.0226,0.0423 -0.0227,0.0423 h -0.23134 -0.23134 l -0.0226,0.0423 -0.0226,0.0423 h -0.14666 -0.14668 l -0.0226,0.0423 -0.0226,0.0423 h -0.23134 -0.23135 l -0.0226,0.0423 -0.0226,0.0423 h -0.23134 -0.23134 l -0.0226,0.0423 -0.0226,0.0423 h -0.14668 -0.14668 l -0.0226,0.0423 -0.0226,0.0423 h -0.062 -0.062 l -0.0226,0.0423 -0.0226,0.0423 h -0.10434 -0.10435 l -0.0226,0.0423 -0.0226,0.0423 h -0.27367 -0.27368 l -0.0226,0.0423 -0.0226,0.0423 -0.0575,2.1e-4 -0.0575,2.2e-4 -0.0741,0.0842 -0.0741,0.0842 -0.12814,2.1e-4 -0.12814,2.1e-4 -0.0677,-0.0698 z m 18.44259,-0.77687 -0.16834,-0.16934 h -0.0448 -0.0448 l -0.0383,-0.0423 -0.0383,-0.0423 h -0.13 -0.13001 l -0.0827,-0.0847 -0.0827,-0.0847 h -0.17234 -0.17234 l -0.0383,-0.0423 -0.0383,-0.0423 h -0.0877 -0.0877 l -0.0827,-0.0847 -0.0827,-0.0847 h -0.0877 -0.0877 l -0.0383,-0.0423 -0.0383,-0.0423 h -0.13102 -0.13103 l -0.0383,-0.0423 -0.0383,-0.0423 h -0.0463 -0.0464 l -0.0383,-0.0423 -0.0383,-0.0423 h -0.0887 -0.0887 l -0.0383,-0.0423 -0.0383,-0.0423 h -0.0464 -0.0464 l -0.0383,-0.0423 -0.0383,-0.0423 h -0.17335 -0.17336 l -0.0383,-0.0423 -0.0383,-0.0423 h -0.0887 -0.0887 l -0.0383,-0.0423 -0.0383,-0.0423 h -0.0887 -0.0887 l -0.0383,-0.0423 -0.0383,-0.0423 h -0.0464 -0.0463 l -0.0383,-0.0423 -0.0383,-0.0423 h -0.59668 -0.59669 l -0.0383,-0.0423 -0.0383,-0.0423 h -0.0464 -0.0464 l -0.0383,-0.0423 -0.0383,-0.0423 h -0.0595 -0.0595 l -0.0226,0.0423 -0.0226,0.0423 h -0.35835 -0.35834 l -0.0226,0.0423 -0.0226,0.0423 h -0.14668 -0.14667 l -0.0226,0.0423 -0.0226,0.0423 h -0.52768 -0.52768 l -0.0226,0.0423 -0.0226,0.0423 h -0.10434 -0.10434 l -0.0226,0.0423 -0.0226,0.0423 h -0.31601 -0.31602 l -0.0226,0.0423 -0.0226,0.0423 h -0.35834 -0.35834 l -0.0226,0.0423 -0.0226,0.0423 h -0.18901 -0.18901 l -0.0226,0.0423 -0.0226,0.0423 h -0.2314 -0.23134 l -0.0227,0.0423 -0.0226,0.0423 h -0.14668 -0.14667 l -0.0226,0.0423 -0.0226,0.0423 h -0.35835 -0.35834 l -0.0226,0.0423 -0.0226,0.0423 h -0.062 -0.062 l -0.0226,0.0423 -0.0226,0.0423 h -0.2596 -0.2596 l -0.0254,-0.0254 -0.0254,-0.0254 v -0.16196 -0.16195 l 0.0637,-0.0666 0.0637,-0.0666 h 0.34889 0.34889 l 0.0264,-0.0423 0.0264,-0.0423 h 0.14289 0.1429 l 0.0264,-0.0423 0.0264,-0.0423 h 0.14289 0.1429 l 0.0264,-0.0423 0.0264,-0.0423 h 0.1429 0.14289 l 0.0264,-0.0423 0.0264,-0.0423 h 0.18523 0.18523 l 0.0264,-0.0423 0.0264,-0.0423 h 0.18523 0.18523 l 0.0264,-0.0423 0.0264,-0.0423 h 0.2699 0.26989 l 0.0264,-0.0423 0.0264,-0.0423 h 0.35456 0.35457 l 0.0264,-0.0423 0.0264,-0.0423 h 0.26989 0.2699 l 0.0264,-0.0423 0.0264,-0.0423 h 0.43923 0.43923 l 0.0264,-0.0423 0.0264,-0.0423 h 0.31223 0.31223 l 0.0264,-0.0423 0.0264,-0.0423 h 0.1 0.1 l 0.0226,0.0423 0.0226,0.0423 h 0.57001 0.57001 l 0.0226,0.0423 0.0226,0.0423 h 0.31601 0.31601 l 0.0226,0.0423 0.0226,0.0423 h 0.14668 0.14667 l 0.0226,0.0423 0.0226,0.0423 h 0.14668 0.14668 l 0.0226,0.0423 0.0226,0.0423 h 0.14667 0.14668 l 0.0226,0.0423 0.0226,0.0423 h 0.10434 0.10435 l 0.0226,0.0423 0.0226,0.0423 h 0.14667 0.14668 l 0.0226,0.0423 0.0226,0.0423 h 0.062 0.062 l 0.0226,0.0423 0.0226,0.0423 h 0.10435 0.10434 l 0.0226,0.0423 0.0226,0.0423 h 0.062 0.062 l 0.0226,0.0423 0.0226,0.0423 0.0998,2.1e-4 0.0998,2.1e-4 0.0741,0.0842 0.0741,0.0843 0.0575,2.1e-4 0.0575,2.1e-4 0.0226,0.0423 0.0226,0.0423 h 0.10434 0.10435 l 0.0226,0.0423 0.0226,0.0423 h 0.062 0.062 l 0.0226,0.0423 0.0226,0.0423 h 0.0968 0.0968 l 0.12235,0.127 0.12236,0.127 h 0.047 0.047 l 0.12236,0.127 0.12235,0.127 h 0.0457 0.0457 l 0.10615,0.10615 0.10614,0.10614 -0.0632,0.0632 -0.0632,0.0632 h -0.12383 -0.12384 l -0.16834,-0.16933 z m -39.767714,-4.953 -0.0111,-0.0423 h -0.0647 -0.0647 l -0.0226,-0.0423 -0.0226,-0.0423 -0.0998,-2.2e-4 -0.0998,-2.1e-4 -0.0741,-0.0842 -0.0741,-0.0843 -0.0904,-2.1e-4 -0.0904,-2.1e-4 -0.27476,-0.27476 -0.27477,-0.27477 -2.1e-4,-0.048 -2.1e-4,-0.048 -0.0842,-0.0741 -0.0842,-0.0741 -5.3e-4,-0.0952 -5.3e-4,-0.0953 -0.0842,-0.0741 -0.0842,-0.0741 -2.1e-4,-0.0602 -2.1e-4,-0.0602 -0.0423,-0.0111 -0.0423,-0.0111 v -0.2914 -0.29139 l 0.0423,-0.0111 0.0423,-0.0111 v -0.27641 -0.2764 l 0.0423,-0.0226 0.0423,-0.0226 v -0.14667 -0.14668 l 0.0423,-0.0226 0.0423,-0.0226 v -0.14667 -0.14668 l 0.0423,-0.0226 0.0423,-0.0226 v -0.062 -0.062 l 0.0423,-0.0226 0.0423,-0.0226 v -0.18902 -0.18901 l 0.0423,-0.0226 0.0423,-0.0226 v -0.062 -0.062 l 0.0423,-0.0227 0.0423,-0.0226 v -0.062 -0.062 l 0.0423,-0.0226 0.0423,-0.0226 v -0.10434 -0.10434 l 0.0423,-0.0226 0.0423,-0.0226 2.1e-4,-0.0575 2.1e-4,-0.0575 0.0843,-0.0741 0.0842,-0.0741 5.3e-4,-0.0952 5.3e-4,-0.0952 0.0842,-0.0741 0.0842,-0.0741 2.1e-4,-0.14213 2.1e-4,-0.14213 0.0423,-0.0226 0.0423,-0.0226 v -0.062 -0.062 l 0.0423,-0.0226 0.0423,-0.0226 v -0.062 -0.062 l 0.0423,-0.0226 0.0423,-0.0226 v -0.10435 -0.10434 l 0.0423,-0.0226 0.0423,-0.0226 v -0.10434 -0.10435 l 0.0423,-0.0226 0.0423,-0.0226 v -0.062 -0.062 l 0.0423,-0.0226 0.0423,-0.0226 v -0.0532 -0.0532 l 0.10483,-0.10483 0.10482,-0.10482 h 0.0532 0.0532 l 0.0226,-0.0423 0.0226,-0.0423 h 0.0904 0.0904 l 0.0677,0.0698 0.0677,0.0698 v 0.0741 0.0741 l -0.0847,0.0827 -0.0847,0.0827 v 0.0443 0.0443 l -0.0847,0.0827 -0.0847,0.0827 v 0.0453 0.0453 l -0.0423,0.0383 -0.0423,0.0383 v 0.0538 0.0538 l 0.0569,0.0594 0.0569,0.0594 h 0.0447 0.0447 l 0.0827,0.0847 0.0827,0.0847 h 0.0877 0.0877 l 0.0383,0.0423 0.0383,0.0423 h 0.045 0.045 l 0.12568,0.127 0.12567,0.127 h 0.045 0.045 l 0.0383,0.0423 0.0383,0.0423 h 0.31347 0.31348 l 0.0226,-0.0423 0.0227,-0.0423 h 0.062 0.062 l 0.0226,-0.0423 0.0226,-0.0423 h 0.18901 0.18901 l 0.0226,-0.0423 0.0226,-0.0423 h 0.23134 0.23135 l 0.0226,-0.0423 0.0226,-0.0423 h 0.17589 0.17589 l 0.0383,0.0423 0.0383,0.0423 h 0.0464 0.0464 l 0.0383,0.0423 0.0383,0.0423 h 0.087 0.087 l 0.23778,0.23846 0.23778,0.23846 v 0.29801 0.29801 l 0.0423,0.0383 0.0423,0.0383 v 0.0358 0.0358 l -0.0423,0.0383 -0.0423,0.0383 v 0.34269 0.34269 l -0.0423,0.0383 -0.0423,0.0383 v 0.17336 0.17335 l -0.0423,0.0383 -0.0423,0.0383 v 0.0563 0.0563 l 0.062,0.0594 0.062,0.0594 0.10734,-0.10734 0.10734,-0.10734 v -0.0532 -0.0532 l 0.0423,-0.0226 0.0423,-0.0226 2.1e-4,-0.0575 2.1e-4,-0.0575 0.0842,-0.0741 0.0842,-0.0741 2.1e-4,-0.0482 2.1e-4,-0.0482 0.18993,-0.18994 0.18993,-0.18993 h 0.16411 0.16412 l 0.15396,0.15293 0.15395,0.15293 v 0.34053 0.34053 l 0.0594,0.0569 0.0594,0.0569 h 0.22564 0.22564 l 0.0226,-0.0423 0.0226,-0.0423 0.14213,-2.1e-4 0.14213,-2.1e-4 0.0741,-0.0842 0.0741,-0.0842 0.0575,-2.1e-4 0.0575,-2.2e-4 0.0226,-0.0423 0.0226,-0.0423 h 0.0545 0.0545 l 0.12235,-0.127 0.12236,-0.127 h 0.0452 0.0452 l 0.18993,-0.18993 0.18993,-0.18993 -2.1e-4,-0.13286 -2.1e-4,-0.13287 -0.0842,-0.0741 -0.0842,-0.0741 -2.1e-4,-0.0998 -2e-4,-0.0998 -0.0423,-0.0226 -0.0423,-0.0226 v -0.23134 -0.23134 l 0.0423,-0.0226 0.0423,-0.0226 v -0.096 -0.096 l 0.21166,-0.20873 0.21167,-0.20873 v -0.0445 -0.0445 l 0.14744,-0.14744 0.14743,-0.14743 h 0.0529 0.0529 l 0.0226,-0.0423 0.0226,-0.0423 0.0575,-2.1e-4 0.0575,-2.1e-4 0.0741,-0.0842 0.0741,-0.0842 0.0575,-2.1e-4 0.0575,-2.1e-4 0.0226,-0.0423 0.0226,-0.0423 h 0.23135 0.23134 l 0.0226,-0.0423 0.0226,-0.0423 h 0.26056 0.26056 l 0.0383,0.0423 0.0383,0.0423 h 0.0871 0.0871 l 0.19537,0.19619 0.19537,0.19619 v 0.0429 0.0429 l 0.0847,0.0827 0.0847,0.0827 v 0.13 0.13001 l 0.0423,0.0383 0.0423,0.0383 v 0.0464 0.0463 l 0.0423,0.0383 0.0423,0.0383 v 0.13103 0.13102 l 0.0423,0.0383 0.0423,0.0383 v 0.20511 0.2051 l -0.0423,0.0383 -0.0423,0.0383 v 0.21569 0.21569 l -0.0423,0.0383 -0.0423,0.0383 v 0.0463 0.0464 l -0.0423,0.0383 -0.0423,0.0383 v 0.0887 0.0887 l -0.0423,0.0383 -0.0423,0.0383 v 0.0464 0.0464 l -0.0423,0.0383 -0.0423,0.0383 v 0.13102 0.13103 l -0.0434,0.0392 -0.0434,0.0392 0.006,0.0646 0.006,0.0646 0.10982,0.006 0.10981,0.006 0.0232,-0.0434 0.0232,-0.0434 h 0.062 0.062 l 0.0226,-0.0423 0.0226,-0.0423 0.0575,-2.2e-4 0.0575,-2.1e-4 0.0741,-0.0842 0.0741,-0.0842 0.0998,-2.1e-4 0.0998,-2.1e-4 0.0227,-0.0423 0.0227,-0.0423 h 0.31601 0.31601 l 0.0227,-0.0423 0.0227,-0.0423 h 0.30289 0.30289 l 0.0383,0.0423 0.0383,0.0423 h 0.0451 0.0451 l 0.11041,0.11179 0.1104,0.11179 v 0.0423 0.0423 l 0.127,0.12568 0.127,0.12567 v 0.045 0.045 l 0.0423,0.0383 0.0423,0.0383 v 0.24743 0.24744 l -0.0423,0.0383 -0.0423,0.0383 v 0.0872 0.0872 l -0.15396,0.15293 -0.15396,0.15293 h -0.0439 -0.0438 l -0.0383,0.0423 -0.0383,0.0423 h -0.17335 -0.17336 l -0.0383,0.0423 -0.0383,0.0423 h -0.043 -0.043 l -0.0472,0.0443 -0.0472,0.0443 -0.0237,-0.0443 -0.0237,-0.0443 h -0.0978 -0.0978 l -0.0764,-0.0828 -0.0764,-0.0828 -0.0632,-0.007 -0.0632,-0.007 -0.007,-0.0623 -0.007,-0.0623 -0.12516,-0.12063 -0.12521,-0.12062 v -0.38495 -0.38495 l -0.0619,-0.0619 -0.0619,-0.0619 h -0.0926 -0.0926 l -0.0827,0.0847 -0.0827,0.0847 h -0.0443 -0.0443 l -0.0827,0.0847 -0.0827,0.0847 h -0.0453 -0.0453 l -0.0383,0.0423 -0.0383,0.0423 h -0.0464 -0.0464 l -0.0383,0.0423 -0.0383,0.0423 h -0.0464 -0.0464 l -0.0383,0.0423 -0.0383,0.0423 h -0.0489 -0.0489 l -0.0226,-0.0423 -0.0226,-0.0423 h -0.0538 -0.0538 l -0.0619,-0.0619 -0.0619,-0.0619 v -0.26547 -0.26546 l 0.0423,-0.0226 0.0423,-0.0226 v -0.14668 -0.14667 l 0.0423,-0.0226 0.0423,-0.0226 v -0.062 -0.062 l 0.0423,-0.0226 0.0423,-0.0226 v -0.14668 -0.14667 l 0.0423,-0.0226 0.0423,-0.0226 v -0.23134 -0.23135 l 0.0423,-0.0226 0.0423,-0.0226 v -0.44301 -0.44301 l -0.0423,-0.0226 -0.0423,-0.0226 -2.1e-4,-0.18446 -2.1e-4,-0.18447 -0.0842,-0.0741 -0.0842,-0.0741 -2.1e-4,-0.0493 -2.1e-4,-0.0493 -0.0619,-0.0619 -0.0619,-0.0619 -0.0493,-2.2e-4 -0.0492,-2.1e-4 -0.0741,-0.0842 -0.0741,-0.0842 -0.0962,-2.1e-4 -0.0962,-2.1e-4 -0.0827,0.0847 -0.0827,0.0847 h -0.0877 -0.0877 l -0.0383,0.0423 -0.0383,0.0423 h -0.0464 -0.0464 l -0.0383,0.0423 -0.0383,0.0423 h -0.0464 -0.0464 l -0.0383,0.0423 -0.0383,0.0423 h -0.0451 -0.0451 l -0.0997,0.10127 -0.0998,0.10127 v 0.0426 0.0426 l -0.0847,0.0827 -0.0847,0.0827 v 0.0453 0.0453 l -0.0423,0.0383 -0.0423,0.0383 v 0.0464 0.0464 l -0.0423,0.0383 -0.0423,0.0383 v 0.0463 0.0464 l -0.0423,0.0383 -0.0423,0.0383 v 0.18151 0.18151 l 0.18477,0.18563 0.18476,0.18562 h 0.0448 0.0448 l 0.0383,0.0423 0.0383,0.0423 h 0.0446 0.0446 l 0.32254,0.32304 0.32254,0.32304 v 0.0864 0.0864 l 0.0423,0.0383 0.0423,0.0383 v 0.16277 0.16278 l -0.0423,0.0383 -0.0423,0.0383 v 0.0463 0.0464 l -0.0423,0.0383 -0.0423,0.0383 v 0.0455 0.0455 l -0.0698,0.0676 -0.0698,0.0676 h -0.0433 -0.0433 l -0.0383,0.0423 -0.0383,0.0423 h -0.0887 -0.0887 l -0.0383,0.0423 -0.0383,0.0423 h -0.0464 -0.0464 l -0.0383,0.0423 -0.0383,0.0423 h -0.0887 -0.0887 l -0.0383,0.0423 -0.0383,0.0423 h -0.0912 -0.0912 l -0.0226,-0.0423 -0.0226,-0.0423 h -0.0532 -0.0532 l -0.10483,-0.10482 -0.10483,-0.10483 v -0.0532 -0.0532 l -0.0423,-0.0226 -0.0423,-0.0226 v -0.10434 -0.10434 l -0.0423,-0.0226 -0.0423,-0.0226 v -0.18717 -0.18718 l 0.0471,-0.0312 0.0471,-0.0312 -0.0697,-0.0697 -0.0698,-0.0697 -0.13133,0.13016 -0.13132,0.13016 h -0.0438 -0.0438 l -0.0383,0.0423 -0.0383,0.0423 h -0.0464 -0.0464 l -0.0383,0.0423 -0.0383,0.0423 h -0.0464 -0.0464 l -0.0383,0.0423 -0.0383,0.0423 h -0.0464 -0.0464 l -0.0383,0.0423 -0.0383,0.0423 h -0.0463 -0.0464 l -0.0383,0.0423 -0.0383,0.0423 h -0.0464 -0.0463 l -0.0383,0.0423 -0.0383,0.0423 h -0.0464 -0.0463 l -0.0383,0.0423 -0.0383,0.0423 h -0.0912 -0.0912 l -0.0226,-0.0423 -0.0226,-0.0423 h -0.13785 -0.13785 l -0.10482,-0.10483 -0.10483,-0.10482 v -0.0466 -0.0466 l -0.084,-0.0776 -0.084,-0.0776 -0.006,-0.27374 -0.006,-0.27374 -0.0611,-0.007 -0.0611,-0.007 -0.10297,0.10143 -0.10298,0.10143 v 0.0861 0.0861 l -0.127,0.12568 -0.127,0.12567 v 0.0434 0.0434 l -0.21167,0.21088 -0.21167,0.21087 v 0.0439 0.0439 l -0.0698,0.0677 -0.0698,0.0676 h -0.12233 -0.12233 l -0.0619,-0.0619 -0.0619,-0.0619 v -0.0538 -0.0538 l -0.0423,-0.0226 -0.0423,-0.0226 v -0.18901 -0.18901 l 0.0423,-0.0226 0.0423,-0.0226 v -0.27368 -0.27368 l 0.0423,-0.0226 0.0423,-0.0226 v -0.10435 -0.10434 l 0.0423,-0.0226 0.0423,-0.0226 v -0.23134 -0.23135 l 0.0423,-0.0226 0.0423,-0.0226 v -0.47714 -0.47713 l -0.0619,-0.0619 -0.0619,-0.0619 -0.0493,-2.1e-4 -0.0492,-2.2e-4 -0.0741,-0.0842 -0.0741,-0.0843 -0.0575,-2.1e-4 -0.0575,-2.1e-4 -0.0226,-0.0423 -0.0226,-0.0423 h -0.14414 -0.14414 l -0.0383,0.0423 -0.0383,0.0423 h -0.13102 -0.13103 l -0.0383,0.0423 -0.0383,0.0423 h -0.17184 -0.17184 l -0.16834,0.16933 -0.16834,0.16934 h -0.0448 -0.0448 l -0.0374,0.0413 -0.0374,0.0413 -0.0982,0.006 -0.0982,0.006 -0.006,0.14836 -0.006,0.14836 0.0855,0.0835 0.0855,0.0835 v 0.0877 0.0877 l 0.0423,0.0383 0.0423,0.0383 v 0.13102 0.13102 l 0.0423,0.0383 0.0423,0.0383 v 0.30036 0.30036 l 0.0423,0.0383 0.0423,0.0383 v 0.0358 0.0358 l -0.0423,0.0383 -0.0423,0.0383 v 0.38503 0.38502 l -0.0423,0.0383 -0.0423,0.0383 v 0.13001 0.13001 l -0.0847,0.0827 -0.0847,0.0827 v 0.17132 0.17132 l -0.0847,0.0827 -0.0847,0.0827 v 0.0859 0.086 l -0.28074,0.28016 -0.28075,0.28017 h -0.043 -0.043 l -0.0827,0.0847 -0.0827,0.0847 h -0.0453 -0.0453 l -0.0383,0.0423 -0.0383,0.0423 h -0.094 -0.094 l -0.0111,0.0423 -0.0111,0.0423 h -0.1644 -0.16439 z m 0.42947,-0.42334 0.0226,-0.0423 h 0.0961 0.0961 l 0.0619,-0.0619 0.0619,-0.0619 v -0.0452 -0.0452 l 0.254,-0.25152 0.254,-0.25151 v -0.0958 -0.0957 l 0.0423,-0.0226 0.0423,-0.0226 v -0.10435 -0.10434 l 0.0423,-0.0226 0.0423,-0.0226 2.1e-4,-0.0575 2.1e-4,-0.0575 0.0842,-0.0741 0.0843,-0.0741 2.1e-4,-0.2268 2e-4,-0.22679 0.0423,-0.0226 0.0423,-0.0226 v -0.40068 -0.40068 l -0.0423,-0.0226 -0.0423,-0.0226 v -0.10435 -0.10434 l -0.0423,-0.0226 -0.0423,-0.0226 v -0.14667 -0.14668 l -0.0423,-0.0226 -0.0423,-0.0226 v -0.062 -0.062 l -0.0423,-0.0226 -0.0423,-0.0226 v -0.0952 -0.0952 l -0.14743,-0.14744 -0.14744,-0.14744 -0.17536,-2.1e-4 -0.17535,-2.1e-4 -0.0741,-0.0842 -0.0741,-0.0843 -0.0575,-2.1e-4 -0.0575,-2e-4 -0.0226,-0.0423 -0.0226,-0.0423 -0.0575,-2.1e-4 -0.0575,-2.1e-4 -0.0741,-0.0842 -0.0741,-0.0842 -0.13642,-2.1e-4 -0.13643,-2.1e-4 -0.0594,0.0569 -0.0594,0.0569 v 0.0457 0.0457 l -0.0423,0.0383 -0.0423,0.0383 v 0.0877 0.0877 l -0.0847,0.0827 -0.0847,0.0827 v 0.13 0.13001 l -0.0423,0.0383 -0.0423,0.0383 v 0.13001 0.13001 l -0.0847,0.0827 -0.0847,0.0827 v 0.13 0.13001 l -0.0423,0.0383 -0.0423,0.0383 v 0.13001 0.13001 l -0.0847,0.0827 -0.0847,0.0827 v 0.60625 0.60626 l 0.0423,0.0383 0.0423,0.0383 v 0.0877 0.0877 l 0.0847,0.0827 0.0847,0.0827 v 0.0453 0.0453 l 0.0423,0.0383 0.0423,0.0383 v 0.0448 0.0448 l 0.18562,0.18477 0.18563,0.18477 h 0.0439 0.0439 l 0.0383,0.0423 0.0383,0.0423 h 0.0464 0.0464 l 0.0383,0.0423 0.0383,0.0423 h 0.18647 0.18648 z m 12.27666,-1.18533 0.0227,-0.0423 h 0.0532 0.0532 l 0.10482,-0.10483 0.10483,-0.10482 -2.1e-4,-0.21797 -2.1e-4,-0.21797 -0.0842,-0.0741 -0.0842,-0.0741 -2.1e-4,-0.0486 -2.1e-4,-0.0486 -0.10483,-0.10482 -0.10482,-0.10483 h -0.17765 -0.17764 l -0.0383,0.0423 -0.0383,0.0423 h -0.0432 -0.0432 l -0.0594,0.0569 -0.0594,0.0569 v 0.26793 0.26792 l 0.0423,0.0383 0.0423,0.0383 v 0.0464 0.0464 l 0.0423,0.0383 0.0423,0.0383 v 0.0432 0.0432 l 0.0569,0.0594 0.0569,0.0594 h 0.18579 0.1858 z m -4.14866,-0.59267 0.0226,-0.0423 h 0.062 0.062 l 0.0226,-0.0423 0.0226,-0.0423 h 0.0532 0.0532 l 0.10482,-0.10482 0.10483,-0.10483 v -0.0955 -0.0955 l -0.0423,-0.0226 -0.0423,-0.0226 v -0.0952 -0.0952 l -0.14745,-0.14744 -0.14744,-0.14743 h -0.0529 -0.0529 l -0.0226,-0.0423 -0.0226,-0.0423 h -0.0991 -0.0991 l -0.10127,0.0998 -0.10127,0.0997 v 0.26739 0.26739 l 0.0423,0.0383 0.0423,0.0383 v 0.086 0.0859 l 0.0998,0.10127 0.0997,0.10126 h 0.0583 0.0583 z m 49.588204,1.67137 -0.14287,-0.14601 v -0.044 -0.044 l -0.10483,-0.10482 -0.10482,-0.10483 -0.0486,-2.1e-4 -0.0486,-2.1e-4 -0.0741,-0.0842 -0.0741,-0.0842 -0.0998,-2.1e-4 -0.0998,-2.1e-4 -0.0226,-0.0423 -0.0226,-0.0423 h -0.14668 -0.14667 l -0.0226,-0.0423 -0.0226,-0.0423 h -0.23135 -0.23134 l -0.0226,-0.0423 -0.0226,-0.0423 h -0.31601 -0.31601 l -0.0226,-0.0423 -0.0226,-0.0423 h -0.27367 -0.27368 l -0.0226,-0.0423 -0.0226,-0.0423 h -0.18901 -0.18901 l -0.0226,-0.0423 -0.0226,-0.0423 h -0.10434 -0.10434 l -0.0226,-0.0423 -0.0226,-0.0423 h -0.062 -0.062 l -0.0226,-0.0423 -0.0226,-0.0423 -0.0575,-2.1e-4 -0.0575,-2.1e-4 -0.0741,-0.0842 -0.0741,-0.0842 -0.0575,-2.1e-4 -0.0575,-2.1e-4 -0.0226,-0.0423 -0.0226,-0.0423 h -0.062 -0.062 l -0.0226,-0.0423 -0.0226,-0.0423 h -0.0585 -0.0585 l -0.0827,0.0847 -0.0827,0.0847 h -0.0453 -0.0453 l -0.0383,0.0423 -0.0383,0.0423 h -0.25235 -0.25235 l -0.0619,-0.0619 -0.0619,-0.0619 -2.1e-4,-0.0493 -2.1e-4,-0.0493 -0.0842,-0.0741 -0.0842,-0.0741 -2.1e-4,-0.22021 -2.1e-4,-0.22021 0.0855,-0.079 0.0855,-0.0789 -0.006,-0.18767 -0.006,-0.18767 -0.0646,-0.006 -0.0646,-0.006 -0.0392,0.0434 -0.0392,0.0434 h -0.0887 -0.0887 l -0.0383,0.0423 -0.0383,0.0423 h -0.0464 -0.0463 l -0.0383,0.0423 -0.0383,0.0423 h -0.0877 -0.0877 l -0.0827,0.0847 -0.0827,0.0847 h -0.13005 -0.13001 l -0.0383,0.0423 -0.0383,0.0423 h -0.13102 -0.13102 l -0.0383,0.0423 -0.0383,0.0423 h -0.0464 -0.0464 l -0.0383,0.0423 -0.0383,0.0423 h -0.0887 -0.0887 l -0.0383,0.0423 -0.0383,0.0423 h -0.0887 -0.0887 l -0.0383,0.0423 -0.0383,0.0423 h -0.0887 -0.0887 l -0.0383,0.0423 -0.0383,0.0423 h -0.0887 -0.0887 l -0.0383,0.0423 -0.0383,0.0423 h -0.26056 -0.26056 l -0.0226,-0.0423 -0.0226,-0.0423 -0.0575,-2.2e-4 -0.0575,-2.1e-4 -0.0741,-0.0842 -0.0741,-0.0842 -0.0486,-2.1e-4 -0.0486,-2.2e-4 -0.10484,-0.10483 -0.10483,-0.10483 v -0.29897 -0.29897 l -0.0619,-0.0619 -0.0619,-0.0619 h -0.13458 -0.13458 l -0.12568,0.127 -0.12567,0.127 h -0.12816 -0.12816 l -0.16834,0.16933 -0.16834,0.16934 h -0.0435 -0.0435 l -0.12568,0.127 -0.12567,0.127 h -0.0873 -0.0873 l -0.0383,0.0423 -0.0383,0.0423 h -0.13356 -0.13355 l -0.0226,-0.0423 -0.0226,-0.0423 h -0.0955 -0.0955 l -0.10483,-0.10483 -0.10483,-0.10482 v -0.30718 -0.30718 l -0.041,-0.0219 -0.041,-0.0219 -0.007,-0.0688 -0.007,-0.0688 -0.10697,-0.006 -0.10697,-0.006 -0.0392,0.0433 -0.0392,0.0433 h -0.0464 -0.0464 l -0.0383,0.0423 -0.0383,0.0423 h -0.0453 -0.0453 l -0.0827,0.0847 -0.0827,0.0847 h -0.0877 -0.0877 l -0.0383,0.0423 -0.0383,0.0423 h -0.0887 -0.0887 l -0.0383,0.0423 -0.0383,0.0423 h -0.0453 -0.0453 l -0.0827,0.0847 -0.0827,0.0847 h -0.0453 -0.0453 l -0.0383,0.0423 -0.0383,0.0423 h -0.13001 -0.13001 l -0.0827,0.0847 -0.0827,0.0847 h -0.0479 -0.0479 l -0.0227,-0.0423 -0.0226,-0.0423 h -0.10434 -0.10435 l -0.0219,-0.041 -0.0219,-0.041 -0.0688,-0.007 -0.0688,-0.007 -0.007,-0.0688 -0.007,-0.0688 -0.0397,-0.0212 -0.0397,-0.0212 -0.007,-0.0688 -0.007,-0.0688 -0.0635,-0.006 -0.0635,-0.006 -0.21126,0.21243 -0.21128,0.21243 h -0.0447 -0.0447 l -0.0383,0.0423 -0.0383,0.0423 h -0.0464 -0.0464 l -0.0383,0.0423 -0.0383,0.0423 h -0.29406 -0.29405 l -0.1045,-0.1045 -0.1045,-0.1045 -0.006,-0.60987 -0.006,-0.60988 -0.14942,-0.006 -0.14941,-0.006 -0.0391,0.0432 -0.0391,0.0432 h -0.0887 -0.0887 l -0.0383,0.0423 -0.0383,0.0423 h -0.0464 -0.0464 l -0.0383,0.0423 -0.0383,0.0423 h -0.0463 -0.0464 l -0.0383,0.0423 -0.0383,0.0423 h -0.0463 -0.0464 l -0.0383,0.0423 -0.0383,0.0423 h -0.045 -0.045 l -0.12567,0.127 -0.12568,0.127 h -0.045 -0.045 l -0.0383,0.0423 -0.0383,0.0423 h -0.0453 -0.0453 l -0.0827,0.0847 -0.0827,0.0847 h -0.0453 -0.0453 l -0.0383,0.0423 -0.0383,0.0423 h -0.0463 -0.0464 l -0.0383,0.0423 -0.0383,0.0423 h -0.0873 -0.0873 l -0.12567,0.127 -0.12567,0.127 h -0.0873 -0.0873 l -0.0383,0.0423 -0.0383,0.0423 h -0.045 -0.045 l -0.12568,0.127 -0.12567,0.127 h -0.0873 -0.0873 l -0.0383,0.0423 -0.0383,0.0423 h -0.0887 -0.0887 l -0.0383,0.0423 -0.0383,0.0423 h -0.17336 -0.17335 l -0.0383,0.0423 -0.0383,0.0423 h -0.0489 -0.0489 l -0.0226,-0.0423 -0.0226,-0.0423 -0.3538,-2.1e-4 -0.3538,-2.1e-4 -0.0741,-0.0842 -0.0741,-0.0842 -0.18192,-2.2e-4 -0.18193,-2.1e-4 -0.0383,0.0423 -0.0383,0.0423 h -0.0489 -0.0489 l -0.0226,-0.0423 -0.0226,-0.0423 h -0.0529 -0.0529 l -0.14771,-0.14743 -0.14743,-0.14744 v -0.0447 -0.0447 l -0.0619,-0.0619 -0.0619,-0.0619 h -0.17725 -0.17725 l -0.0827,0.0847 -0.0827,0.0847 h -0.17234 -0.17234 l -0.0383,0.0423 -0.0383,0.0423 h -0.0453 -0.0453 l -0.0827,0.0847 -0.0827,0.0847 h -0.0902 -0.0902 l -0.0226,-0.0423 -0.0226,-0.0423 -0.39614,-2.1e-4 -0.39612,-2.1e-4 -0.0741,-0.0842 -0.0741,-0.0842 -0.0484,-2.2e-4 -0.0484,-2.1e-4 -0.14744,-0.14744 -0.14744,-0.14743 v -0.0529 -0.0529 l -0.0423,-0.0226 -0.0423,-0.0226 v -0.062 -0.062 l -0.0423,-0.0226 -0.0423,-0.0226 v -0.14668 -0.14668 l -0.041,-0.0219 -0.041,-0.0219 -0.007,-0.0688 -0.007,-0.0688 h -0.0741 -0.0741 l -0.006,0.0546 -0.006,0.0546 -0.12594,0.12463 -0.12594,0.12463 v 0.0441 0.0441 l -0.0698,0.0677 -0.0698,0.0676 h -0.0418 -0.0418 l -0.16834,0.16933 -0.16834,0.16934 h -0.0448 -0.0448 l -0.0383,0.0423 -0.0383,0.0423 h -0.045 -0.045 l -0.12567,0.127 -0.12568,0.127 h -0.045 -0.045 l -0.0383,0.0423 -0.0383,0.0423 h -0.0464 -0.0464 l -0.0383,0.0423 -0.0383,0.0423 h -0.0453 -0.0453 l -0.0827,0.0847 -0.0827,0.0847 h -0.17234 -0.17234 l -0.0383,0.0423 -0.0383,0.0423 -0.29834,-2.1e-4 -0.29835,-2.1e-4 -0.0741,-0.0842 -0.0741,-0.0842 -0.0973,-2.2e-4 -0.0973,-2.1e-4 -0.0383,0.0423 -0.0383,0.0423 h -0.0464 -0.0464 l -0.0383,0.0423 -0.0383,0.0423 h -0.0464 -0.0464 l -0.0383,0.0423 -0.0383,0.0423 h -0.0912 -0.0912 l -0.0227,-0.0423 -0.0226,-0.0423 h -0.14667 -0.14668 l -0.0226,-0.0423 -0.0226,-0.0423 h -0.062 -0.062 l -0.0219,-0.041 -0.0219,-0.041 -0.0688,-0.007 -0.0688,-0.007 -0.007,-0.0688 -0.007,-0.0688 -0.041,-0.0219 -0.041,-0.0219 v -0.316 -0.31601 l 0.0423,-0.0226 0.0423,-0.0226 v -0.27368 -0.27368 l 0.0423,-0.0226 0.0423,-0.0226 v -0.10435 -0.10434 l 0.0423,-0.0226 0.0423,-0.0226 v -0.054 -0.054 l 0.16933,-0.16573 0.16934,-0.16573 2.1e-4,-0.0494 2.1e-4,-0.0494 0.0842,-0.0741 0.0842,-0.0741 2.1e-4,-0.0484 2.1e-4,-0.0483 0.14744,-0.14744 0.14744,-0.14743 h 0.12445 0.12445 l 0.0383,0.0423 0.0383,0.0423 h 0.0878 0.0878 l 0.0677,0.0698 0.0677,0.0698 v 0.0423 0.0423 l 0.0847,0.0827 0.0847,0.0827 v 0.0348 0.0348 l -0.0423,0.0383 -0.0423,0.0383 v 0.13001 0.13 l -0.0847,0.0827 -0.0847,0.0827 v 0.0453 0.0453 l -0.0423,0.0383 -0.0423,0.0383 v 0.0559 0.0559 l 0.0847,0.0827 0.0847,0.0827 v 0.0453 0.0453 l 0.0423,0.0383 0.0423,0.0383 v 0.0781 0.0781 l -0.0423,0.0383 -0.0423,0.0383 v 0.1825 0.18249 l 0.1434,0.14231 0.14341,0.14231 0.22172,-2.2e-4 0.22172,-2.1e-4 0.0741,-0.0842 0.0741,-0.0842 0.0998,-2.1e-4 0.0998,-2.1e-4 0.0226,-0.0423 0.0226,-0.0423 h 0.062 0.062 l 0.0226,-0.0423 0.0226,-0.0423 h 0.096 0.096 l 0.2084,-0.21168 0.20873,-0.21166 h 0.0442 0.0442 l 0.31715,-0.31716 0.31715,-0.31715 2.1e-4,-0.048 2.1e-4,-0.048 0.0842,-0.0741 0.0842,-0.0741 2.1e-4,-0.0575 2.2e-4,-0.0575 0.0423,-0.0226 0.0423,-0.0226 v -0.062 -0.062 l 0.0423,-0.0226 0.0423,-0.0226 v -0.0545 -0.0545 l 0.127,-0.12235 0.127,-0.12236 v -0.0545 -0.0545 l 0.0423,-0.0226 0.0423,-0.0226 v -0.062 -0.062 l 0.0423,-0.0226 0.0423,-0.0226 v -0.0545 -0.0545 l 0.127,-0.12236 0.127,-0.12235 v -0.0968 -0.0968 l 0.0423,-0.0226 0.0423,-0.0226 v -0.0538 -0.0538 l 0.0619,-0.0619 0.0619,-0.0619 h 0.20906 0.20906 l 0.0254,0.0254 0.0254,0.0254 v 0.24649 0.24649 l -0.0423,0.0383 -0.0423,0.0383 v 0.0463 0.0464 l -0.0423,0.0383 -0.0423,0.0383 v 0.0887 0.0887 l -0.0423,0.0383 -0.0423,0.0383 v 0.13102 0.13103 l -0.0423,0.0383 -0.0423,0.0383 v 0.0887 0.0887 l -0.0423,0.0383 -0.0423,0.0383 v 0.47856 0.47857 l 0.27017,0.26957 0.27017,0.26957 h 0.31117 0.31117 l 0.0227,-0.0423 0.0226,-0.0423 h 0.0545 0.0545 l 0.12235,-0.127 0.12236,-0.127 h 0.13916 0.13916 l 0.0226,-0.0423 0.0226,-0.0423 h 0.062 0.062 l 0.0226,-0.0423 0.0226,-0.0423 h 0.0526 0.0526 l 0.23237,-0.23236 0.23232,-0.23235 v -0.0856 -0.0856 l 0.23238,-0.23236 0.23236,-0.23236 h 0.0395 0.0395 l 0.0383,0.0423 0.0383,0.0423 h 0.0878 0.0878 l 0.0677,0.0698 0.0677,0.0698 v 0.0294 0.0294 l -0.0462,0.0491 -0.0462,0.0491 0.0607,0.0634 0.0607,0.0634 h 0.0444 0.0444 l 0.11041,0.11179 0.1104,0.11179 v 0.45305 0.45306 l -0.0462,0.0491 -0.0462,0.0491 0.0607,0.0634 0.0607,0.0634 h 0.088 0.088 l 0.0383,0.0423 0.0383,0.0423 h 0.18647 0.18647 l 0.0226,-0.0423 0.0226,-0.0423 h 0.14668 0.14668 l 0.0226,-0.0423 0.0226,-0.0423 h 0.062 0.062 l 0.0226,-0.0423 0.0226,-0.0423 h 0.062 0.062 l 0.0226,-0.0423 0.0226,-0.0423 h 0.062 0.062 l 0.0226,-0.0423 0.0226,-0.0423 h 0.062 0.062 l 0.0226,-0.0423 0.0226,-0.0423 0.0575,-2.2e-4 0.0575,-2.1e-4 0.0741,-0.0842 0.0741,-0.0842 0.0575,-2.1e-4 0.0575,-2.1e-4 0.0226,-0.0423 0.0226,-0.0423 h 0.062 0.062 l 0.0226,-0.0423 0.0226,-0.0423 0.0575,-2.2e-4 0.0575,-2.1e-4 0.0741,-0.0842 0.0741,-0.0843 0.0529,-5.3e-4 0.0529,-5.3e-4 0.0741,-0.0842 0.0741,-0.0842 0.0575,-2.1e-4 0.0575,-2.1e-4 0.0226,-0.0423 0.0227,-0.0423 h 0.062 0.062 l 0.0226,-0.0423 0.0226,-0.0423 h 0.062 0.062 l 0.0226,-0.0423 0.0226,-0.0423 h 0.062 0.062 l 0.0226,-0.0423 0.0226,-0.0423 h 0.10434 0.10435 l 0.0226,-0.0423 0.0226,-0.0423 h 0.062 0.062 l 0.0226,-0.0423 0.0226,-0.0423 h 0.10434 0.10434 l 0.0226,-0.0423 0.0226,-0.0423 h 0.10435 0.10434 l 0.0226,-0.0423 0.0226,-0.0423 h 0.10434 0.10435 l 0.0226,-0.0423 0.0226,-0.0423 h 0.17441 0.17441 l 0.15293,0.15396 0.15293,0.15395 v 0.29785 0.29785 l 0.0413,0.0373 0.0413,0.0374 0.006,0.0982 0.006,0.0982 0.0586,0.007 0.0586,0.007 0.16714,-0.17078 0.16714,-0.17077 h 0.0454 0.0454 l 0.25152,-0.254 0.25152,-0.254 h 0.12409 0.12409 l 0.0677,0.0698 0.0677,0.0698 v 0.21265 0.21267 l 0.0423,0.0383 0.0423,0.0383 v 0.0457 0.0457 l 0.0594,0.0569 0.0594,0.0569 0.17876,-2.1e-4 0.17875,-2.2e-4 0.0741,-0.0842 0.0741,-0.0843 0.0529,-5.3e-4 0.0529,-5.3e-4 0.0741,-0.0842 0.0741,-0.0842 0.0953,-5.3e-4 0.0952,-5.3e-4 0.0741,-0.0842 0.0741,-0.0842 0.0575,-2.1e-4 0.0575,-2.1e-4 0.0226,-0.0423 0.0226,-0.0423 h 0.062 0.062 l 0.0226,-0.0423 0.0226,-0.0423 h 0.062 0.062 l 0.0226,-0.0423 0.0226,-0.0423 h 0.10435 0.10434 l 0.0226,-0.0423 0.0226,-0.0423 h 0.0489 0.0489 l 0.0383,0.0423 0.0383,0.0423 h 0.0464 0.0464 l 0.0383,0.0423 0.0383,0.0423 h 0.0862 0.0862 l 0.15396,0.15293 0.15395,0.15292 v 0.0872 0.0872 l 0.0423,0.0383 0.0423,0.0383 v 0.0457 0.0457 l 0.0594,0.0569 0.0594,0.0569 h 0.0563 0.0563 l 0.0226,-0.0423 0.0226,-0.0423 0.0998,-2.1e-4 0.0998,-2.1e-4 0.0741,-0.0842 0.0741,-0.0842 0.0529,-5.3e-4 0.0529,-5.3e-4 0.0741,-0.0842 0.0741,-0.0842 0.0953,-5.3e-4 0.0952,-5.3e-4 0.0741,-0.0842 0.0741,-0.0842 0.14213,-2.2e-4 0.14213,-2.1e-4 0.0226,-0.0423 0.0226,-0.0423 h 0.34394 0.34394 l 0.1104,0.11179 0.1104,0.11179 v 0.0427 0.0427 l 0.0847,0.0827 0.0847,0.0827 v 0.0877 0.0877 l 0.0423,0.0383 0.0423,0.0383 v 0.1298 0.12981 l 0.10127,0.0998 0.10127,0.0997 0.0945,-2.1e-4 0.0945,-2.1e-4 0.0741,-0.0842 0.0741,-0.0842 0.17991,-5.3e-4 0.17992,-5.3e-4 0.0741,-0.0842 0.0741,-0.0842 0.0575,-2.2e-4 0.0575,-2.1e-4 0.0226,-0.0423 0.0226,-0.0423 h 0.10434 0.10435 l 0.0226,-0.0423 0.0226,-0.0423 h 0.10434 0.10434 l 0.0226,-0.0423 0.0226,-0.0423 h 0.10434 0.10435 l 0.0226,-0.0423 0.0226,-0.0423 h 0.10434 0.10434 l 0.0226,-0.0423 0.0226,-0.0423 h 0.10434 0.10435 l 0.0226,-0.0423 0.0226,-0.0423 h 0.062 0.062 l 0.0226,-0.0423 0.0226,-0.0423 0.0998,-2.1e-4 0.0998,-2.1e-4 0.0741,-0.0842 0.0741,-0.0843 0.0575,-2.1e-4 0.0575,-2.1e-4 0.0226,-0.0423 0.0226,-0.0423 h 0.13916 0.13916 l 0.12235,-0.127 0.12236,-0.127 h 0.0545 0.0545 l 0.0226,-0.0423 0.0226,-0.0423 0.0575,-2.1e-4 0.0575,-2.1e-4 0.0741,-0.0842 0.0741,-0.0843 0.21272,-2.1e-4 0.21273,-2.1e-4 0.0254,0.0254 0.0254,0.0254 v 0.11611 0.11611 l -0.0462,0.0491 -0.0462,0.0491 0.0607,0.0634 0.0607,0.0634 h 0.0457 0.0457 l 0.0383,0.0423 0.0383,0.0423 h 0.0878 0.0878 l 0.0677,0.0698 0.0677,0.0698 v 0.0327 0.0328 l -0.0423,0.0383 -0.0423,0.0383 v 0.2686 0.26861 l 0.0423,0.0383 0.0423,0.0383 v 0.21425 0.21424 l 0.1434,0.14231 0.14341,0.1423 h 0.0438 0.0438 l 0.0383,0.0423 0.0383,0.0423 h 0.21569 0.21569 l 0.0383,0.0423 0.0383,0.0423 h 0.17335 0.17336 l 0.0383,0.0423 0.0383,0.0423 h 0.21569 0.21568 l 0.0383,0.0423 0.0383,0.0423 h 0.17336 0.17335 l 0.0383,0.0423 0.0383,0.0423 h 0.0887 0.0887 l 0.0383,0.0423 0.0383,0.0423 h 0.0464 0.0464 l 0.0383,0.0423 0.0383,0.0423 h 0.0887 0.0887 l 0.0383,0.0423 0.0383,0.0423 h 0.0887 0.0887 l 0.0383,0.0423 0.0383,0.0423 h 0.0871 0.0871 l 0.19538,0.19619 0.19537,0.19619 v 0.0879 0.0879 l 0.0847,0.0725 0.0847,0.0725 v 0.0554 0.0554 l -0.0423,0.0226 -0.0423,0.0226 v 0.0479 0.0479 l -0.0254,0.0254 -0.0254,0.0254 -0.0857,-0.002 -0.0857,-0.002 -0.14287,-0.146 z m -29.75341,-2.02957 0.0619,-0.0619 v -0.0538 -0.0538 l 0.0429,-0.023 0.0429,-0.023 -0.006,-0.27938 -0.006,-0.27939 h -0.11642 -0.11641 l -0.006,0.056 -0.007,0.056 -0.0411,0.0372 -0.0411,0.0372 v 0.26544 0.26544 l 0.0569,0.0594 0.0569,0.0594 h 0.008 0.008 z m 25.146,0 0.0619,-0.0619 v -0.0538 -0.0538 l 0.0423,-0.0226 0.0423,-0.0226 v -0.13847 -0.13846 l -0.063,-0.0631 -0.0631,-0.0631 -0.10099,0.006 -0.10099,0.006 -0.006,0.056 -0.007,0.056 -0.0411,0.0372 -0.0411,0.0372 v 0.18077 0.18076 l 0.0569,0.0594 0.0569,0.0594 h 0.0506 0.0506 z m -34.04292,1.39436 -0.18521,-0.18841 v -0.0527 -0.0527 l -0.0423,-0.0226 -0.0423,-0.0226 v -0.23134 -0.23135 l 0.0423,-0.0226 0.0423,-0.0226 v -0.31602 -0.31601 l 0.0423,-0.0226 0.0423,-0.0226 2.1e-4,-0.14213 2.1e-4,-0.14213 0.0842,-0.0741 0.0842,-0.0741 2.1e-4,-0.18446 2.2e-4,-0.18446 0.0423,-0.0226 0.0423,-0.0226 v -0.062 -0.062 l 0.0423,-0.0226 0.0423,-0.0226 v -0.10434 -0.10435 l 0.0423,-0.0226 0.0423,-0.0226 v -0.10435 -0.10434 l 0.0423,-0.0226 0.0423,-0.0226 v -0.14668 -0.14667 l 0.0423,-0.0226 0.0423,-0.0226 v -0.10434 -0.10435 l 0.0423,-0.0226 0.0423,-0.0226 v -0.062 -0.062 l 0.0423,-0.0226 0.0423,-0.0226 v -0.10434 -0.10435 l 0.0423,-0.0226 0.0423,-0.0226 v -0.062 -0.062 l 0.0423,-0.0226 0.0423,-0.0226 v -0.23135 -0.23134 l 0.0423,-0.0226 0.0423,-0.0226 v -0.062 -0.062 l 0.0423,-0.0226 0.0423,-0.0226 v -0.27368 -0.27368 l 0.0423,-0.0226 0.0423,-0.0226 v -0.0951 -0.0951 l 0.18992,-0.18993 0.18993,-0.18992 h 0.12301 0.123 l 0.1104,0.11178 0.1104,0.1118 v 0.0331 0.0331 l -0.0423,0.0383 -0.0423,0.0383 v 0.17336 0.17335 l -0.0423,0.0383 -0.0423,0.0383 v 0.257 0.25701 l -0.0847,0.0827 -0.0847,0.0827 v 0.0877 0.0877 l -0.0423,0.0383 -0.0423,0.0383 v 0.0877 0.0877 l -0.0847,0.0827 -0.0847,0.0827 v 0.17234 0.17234 l -0.0423,0.0383 -0.0423,0.0383 v 0.0453 0.0453 l -0.0847,0.0827 -0.0847,0.0827 v 0.13001 0.13 l -0.0423,0.0383 -0.0423,0.0383 v 0.0453 0.0454 l -0.0847,0.0827 -0.0847,0.0827 v 0.13001 0.13001 l -0.0423,0.0383 -0.0423,0.0383 v 0.0887 0.0887 l -0.0423,0.0383 -0.0423,0.0383 v 0.0887 0.0887 l -0.0423,0.0383 -0.0423,0.0383 v 0.0887 0.0887 l -0.0423,0.0383 -0.0423,0.0383 v 0.0464 0.0463 l -0.0423,0.0383 -0.0423,0.0383 v 0.0463 0.0464 l -0.0423,0.0383 -0.0423,0.0383 v 0.39492 0.39493 l 0.0618,0.0592 0.0618,0.0592 0.19224,-0.19223 0.19222,-0.19223 2.2e-4,-0.0482 2.1e-4,-0.0482 0.0842,-0.0741 0.0842,-0.0741 4.2e-4,-0.13758 4.2e-4,-0.13759 0.0842,-0.0741 0.0842,-0.0741 2.2e-4,-0.0575 2.1e-4,-0.0575 0.0423,-0.0226 0.0423,-0.0226 v -0.062 -0.062 l 0.0423,-0.0226 0.0423,-0.0227 2.1e-4,-0.0575 2.1e-4,-0.0575 0.0842,-0.0741 0.0842,-0.0741 2.1e-4,-0.0575 2.1e-4,-0.0575 0.0423,-0.0226 0.0423,-0.0226 v -0.062 -0.062 l 0.0423,-0.0226 0.0423,-0.0226 v -0.062 -0.062 l 0.0423,-0.0226 0.0423,-0.0226 v -0.10436 -0.10434 l 0.0423,-0.0226 0.0423,-0.0226 v -0.13846 -0.13847 l 0.0619,-0.0619 0.0619,-0.0619 h 0.25106 0.25106 l 0.1104,0.11179 0.11041,0.11179 v 0.38234 0.38235 l 0.0423,0.0383 0.0423,0.0383 v 0.21569 0.21569 l 0.0423,0.0383 0.0423,0.0383 v 0.0887 0.0887 l 0.0423,0.0383 0.0423,0.0383 v 0.0449 0.0449 l 0.1434,0.1423 0.14341,0.14231 h 0.20977 0.20977 l 0.0513,0.0476 0.0513,0.0476 0.032,-0.0476 0.032,-0.0476 h 0.10251 0.1025 l 0.0226,-0.0423 0.0226,-0.0423 0.0998,-2.2e-4 0.0998,-2.1e-4 0.0741,-0.0842 0.0741,-0.0842 0.0492,-2.1e-4 0.0492,-2.1e-4 0.0619,-0.0619 0.0619,-0.0619 v -0.0538 -0.0538 l 0.0423,-0.0226 0.0423,-0.0226 v -0.062 -0.062 l 0.0423,-0.0226 0.0423,-0.0226 v -0.14668 -0.14668 l 0.0423,-0.0226 0.0423,-0.0226 v -0.31602 -0.31601 l -0.0423,-0.0226 -0.0423,-0.0227 v -0.062 -0.062 l -0.0423,-0.0226 -0.0423,-0.0226 v -0.062 -0.062 l -0.0423,-0.0226 -0.0423,-0.0226 -2.1e-4,-0.0998 -2.1e-4,-0.0998 -0.0842,-0.0741 -0.0842,-0.0741 -5.3e-4,-0.0952 -5.3e-4,-0.0952 -0.0842,-0.0741 -0.0842,-0.0741 -2.1e-4,-0.0998 -2.1e-4,-0.0998 -0.0423,-0.0226 -0.0423,-0.0226 v -0.14668 -0.14668 l -0.0423,-0.0227 -0.0423,-0.0226 -2.1e-4,-0.0998 -2.2e-4,-0.0998 -0.0842,-0.0741 -0.0842,-0.0741 -5.2e-4,-0.26458 -5.3e-4,-0.26458 -0.0842,-0.0741 -0.0843,-0.0741 -2.2e-4,-0.0575 -2.1e-4,-0.0575 -0.0423,-0.0226 -0.0423,-0.0226 v -0.18902 -0.18901 l -0.0423,-0.0226 -0.0423,-0.0226 v -0.062 -0.062 l -0.0423,-0.0226 -0.0423,-0.0226 v -0.56051 -0.56052 l 0.31716,-0.31716 0.31715,-0.31714 0.0903,-2e-4 0.0903,-2.1e-4 0.0741,-0.0842 0.0741,-0.0843 0.0575,-2.1e-4 0.0575,-2.1e-4 0.0226,-0.0423 0.0226,-0.0423 h 0.10434 0.10435 l 0.0226,-0.0423 0.0226,-0.0423 h 0.062 0.062 l 0.0226,-0.0423 0.0226,-0.0423 h 0.10434 0.10434 l 0.0226,-0.0423 0.0226,-0.0423 h 0.062 0.062 l 0.0226,-0.0423 0.0226,-0.0423 h 0.14668 0.14668 l 0.0226,-0.0423 0.0227,-0.0423 h 0.062 0.062 l 0.0226,-0.0423 0.0226,-0.0423 h 0.10434 0.10435 l 0.0226,-0.0423 0.0226,-0.0423 0.0998,-2.1e-4 0.0998,-2e-4 0.0741,-0.0843 0.0741,-0.0842 0.0998,-2.1e-4 0.0998,-2e-4 0.0226,-0.0423 0.0226,-0.0423 h 0.13846 0.13847 l 0.0619,-0.0619 0.0619,-0.0619 v -0.0228 -0.0228 h 0.29633 0.29633 v 0.0708 0.0708 l 0.0423,0.0383 0.0423,0.0383 v 0.0349 0.0349 l -0.0698,0.0676 -0.0698,0.0677 h -0.17027 -0.17034 l -0.0383,0.0423 -0.0383,0.0423 h -0.0887 -0.0887 l -0.0383,0.0423 -0.0383,0.0423 h -0.13102 -0.13102 l -0.0383,0.0423 -0.0383,0.0423 h -0.0887 -0.0887 l -0.0383,0.0423 -0.0383,0.0423 h -0.0873 -0.0873 l -0.12568,0.127 -0.12567,0.127 h -0.12968 -0.12967 l -0.0383,0.0423 -0.0383,0.0423 h -0.0453 -0.0453 l -0.0827,0.0847 -0.0827,0.0847 h -0.0453 -0.0453 l -0.0383,0.0423 -0.0383,0.0423 h -0.0463 -0.0464 l -0.0383,0.0423 -0.0383,0.0423 h -0.0464 -0.0464 l -0.0383,0.0423 -0.0383,0.0423 h -0.0464 -0.0464 l -0.0383,0.0423 -0.0383,0.0423 h -0.0457 -0.0457 l -0.0569,0.0594 -0.0569,0.0594 v 0.0416 0.0416 l -0.21167,0.21087 -0.21166,0.21088 v 0.21407 0.21407 l -0.0423,0.0383 -0.0423,0.0383 v 0.1416 0.14161 l 0.0423,0.0383 0.0423,0.0383 v 0.13102 0.13103 l 0.0423,0.0383 0.0423,0.0383 v 0.38502 0.38502 l 0.0423,0.0383 0.0423,0.0383 v 0.17335 0.17336 l 0.0423,0.0383 0.0423,0.0383 v 0.13102 0.13102 l 0.0423,0.0383 0.0423,0.0383 v 0.0871 0.0871 l 0.21166,0.21087 0.21167,0.21087 v 0.12941 0.12941 l 0.0423,0.0383 0.0423,0.0383 v 0.13001 0.13001 l 0.0847,0.0827 0.0847,0.0827 v 0.21468 0.21467 l 0.0423,0.0383 0.0423,0.0383 v 0.0781 0.0781 l -0.0423,0.0383 -0.0423,0.0383 v 0.21569 0.21568 l -0.0423,0.0383 -0.0423,0.0383 v 0.0447 0.0447 l -0.23848,0.23778 -0.23846,0.23778 h -0.0864 -0.0863 l -0.0383,0.0423 -0.0383,0.0423 h -0.0887 -0.0887 l -0.0383,0.0423 -0.0383,0.0423 h -0.0464 -0.0464 l -0.0383,0.0423 -0.0383,0.0423 h -0.30035 -0.30036 l -0.0383,0.0423 -0.0383,0.0423 -0.12901,-2.1e-4 -0.12901,-2.1e-4 -0.0741,-0.0842 -0.0741,-0.0842 -0.13409,-2.1e-4 -0.13409,-2.1e-4 -0.16573,-0.16934 -0.16573,-0.16933 h -0.0458 -0.0458 l -0.0606,-0.0606 -0.0606,-0.0606 -0.007,-0.10345 -0.007,-0.10345 -0.0646,-0.006 -0.0646,-0.006 -0.0392,0.0434 -0.0392,0.0434 h -0.0447 -0.0447 l -0.22716,0.22788 -0.22718,0.22789 v 0.0423 0.0423 l -0.254,0.25333 -0.254,0.25334 v 0.0431 0.0431 l -0.19619,0.19537 -0.19619,0.19537 -0.1266,-0.002 -0.12661,-0.002 -0.18521,-0.18841 z m 2.51368,-1.77722 0.0132,-0.0214 -0.0647,-0.0647 -0.0647,-0.0647 -0.0214,0.0132 -0.0214,0.0132 v 0.0587 0.0587 l 0.0141,0.0141 0.0141,0.0141 h 0.0587 0.0587 z m 1.7282,-5.46077 0.0635,-0.0635 -0.0667,-0.0668 -0.0668,-0.0668 -0.0663,0.0663 -0.0663,0.0663 0.0613,0.064 0.0613,0.064 h 0.008 0.008 z m -11.877764,4.33917 -0.0226,-0.0423 h -0.0961 -0.0961 l -0.0619,-0.0619 -0.0619,-0.0619 v -0.0879 -0.0879 l 0.0619,-0.0619 0.0619,-0.0619 h 0.1808 0.1808 l 0.0227,-0.0423 0.0227,-0.0423 h 0.062 0.062 l 0.0227,-0.0423 0.0227,-0.0423 h 0.10434 0.10435 l 0.0227,-0.0423 0.0227,-0.0423 h 0.31601 0.31601 l 0.0227,-0.0423 0.0227,-0.0423 h 0.34522 0.34523 l 0.0383,0.0423 0.0383,0.0423 h 0.17335 0.17336 l 0.0383,0.0423 0.0383,0.0423 h 0.0878 0.0878 l 0.0677,0.0698 0.0677,0.0698 v 0.0397 0.0397 l 0.0354,0.0391 0.0354,0.0391 -0.0605,0.0631 -0.0605,0.0631 h -0.0482 -0.0482 l -0.0227,-0.0423 -0.0227,-0.0423 h -0.10181 -0.10181 l -0.0383,0.0423 -0.0383,0.0423 h -0.46969 -0.46968 l -0.0383,0.0423 -0.0383,0.0423 h -0.30036 -0.30036 l -0.0383,0.0423 -0.0383,0.0423 h -0.0464 -0.0464 l -0.0383,0.0423 -0.0383,0.0423 h -0.21824 -0.21823 z m 23.172214,-1.03684 -0.0582,-0.0611 v -0.094 -0.094 l -0.0471,-0.0312 -0.0471,-0.0312 0.0666,-0.0666 0.0666,-0.0666 h 0.22313 0.22314 l 0.0226,-0.0423 0.0226,-0.0423 h 0.27367 0.27368 l 0.0226,-0.0423 0.0226,-0.0423 h 0.18901 0.18901 l 0.0226,-0.0423 0.0226,-0.0423 h 0.40068 0.40068 l 0.0226,-0.0423 0.0226,-0.0423 h 0.27367 0.27368 l 0.0226,-0.0423 0.0226,-0.0423 h 0.64156 0.64156 l 0.0383,0.0423 0.0383,0.0423 h 0.30035 0.30036 l 0.0383,0.0423 0.0383,0.0423 h 0.17234 0.17234 l 0.0827,0.0847 0.0827,0.0847 h 0.0864 0.0864 l 0.1104,0.11179 0.1104,0.11179 v 0.0322 0.0322 l -0.0698,0.0676 -0.0698,0.0677 h -0.0459 -0.0459 l -0.0226,-0.0423 -0.0226,-0.0423 h -0.14668 -0.14667 l -0.0226,-0.0423 -0.0226,-0.0423 h -0.35835 -0.35834 l -0.0226,-0.0423 -0.0226,-0.0423 h -0.062 -0.062 l -0.0226,-0.0423 -0.0226,-0.0423 h -0.0595 -0.0595 l -0.0383,0.0423 -0.0383,0.0423 h -0.26057 -0.26056 l -0.0226,-0.0423 -0.0226,-0.0423 h -0.31347 -0.31347 l -0.0383,0.0423 -0.0383,0.0423 h -0.0464 -0.0463 l -0.0383,0.0423 -0.0383,0.0423 h -0.17336 -0.17335 l -0.0383,0.0423 -0.0383,0.0423 h -0.46969 -0.46969 l -0.0383,0.0423 -0.0383,0.0423 h -0.0887 -0.0887 l -0.0383,0.0423 -0.0383,0.0423 h -0.21569 -0.21569 l -0.0383,0.0423 -0.0383,0.0423 -0.21368,-0.001 -0.21367,-0.001 -0.0582,-0.0611 z"
       id="path3763"
       inkscape:connector-curvature="0" />
  </g>
</svg>
